<?xml version="1.0" encoding="UTF-8" standalone="no"?>
<svg
   version="1.0"
   width="2048.000000pt"
   height="512.000000pt"
   viewBox="0 0 2048.000000 512.000000"
   preserveAspectRatio="xMidYMid meet"
   id="svg15"
   sodipodi:docname="logo_mlquantify-white.svg"
   inkscape:version="1.3.2 (091e20e, 2023-11-25, custom)"
   inkscape:export-filename="logo_mlquantify-white.png"
   inkscape:export-xdpi="96"
   inkscape:export-ydpi="96"
   xmlns:inkscape="http://www.inkscape.org/namespaces/inkscape"
   xmlns:sodipodi="http://sodipodi.sourceforge.net/DTD/sodipodi-0.dtd"
   xmlns:xlink="http://www.w3.org/1999/xlink"
   xmlns="http://www.w3.org/2000/svg"
   xmlns:svg="http://www.w3.org/2000/svg">
  <defs
     id="defs15">
    <linearGradient
       id="linearGradient3"
       inkscape:collect="always">
      <stop
         style="stop-color:#af62ff;stop-opacity:1;"
         offset="0"
         id="stop3" />
      <stop
         style="stop-color:#ff6b8f;stop-opacity:0.9147287;"
         offset="1"
         id="stop4" />
    </linearGradient>
    <linearGradient
       inkscape:collect="always"
       xlink:href="#linearGradient3"
       id="linearGradient4"
       x1="6788.1372"
       y1="2492.1676"
       x2="8042.9053"
       y2="2492.1676"
       gradientUnits="userSpaceOnUse" />
    <linearGradient
       inkscape:collect="always"
       xlink:href="#linearGradient3"
       id="linearGradient7"
       gradientUnits="userSpaceOnUse"
       x1="6788.1372"
       y1="2492.1676"
       x2="8042.9053"
       y2="2492.1676" />
    <linearGradient
       inkscape:collect="always"
       xlink:href="#linearGradient3"
       id="linearGradient8"
       gradientUnits="userSpaceOnUse"
       x1="6788.1372"
       y1="2492.1676"
       x2="8042.9053"
       y2="2492.1676" />
    <linearGradient
       inkscape:collect="always"
       xlink:href="#linearGradient3"
       id="linearGradient9"
       gradientUnits="userSpaceOnUse"
       x1="6788.1372"
       y1="2492.1676"
       x2="8042.9053"
       y2="2492.1676" />
  </defs>
  <sodipodi:namedview
     id="namedview15"
     pagecolor="#ffffff"
     bordercolor="#000000"
     borderopacity="0.25"
     inkscape:showpageshadow="2"
     inkscape:pageopacity="0.0"
     inkscape:pagecheckerboard="0"
     inkscape:deskcolor="#d1d1d1"
     inkscape:document-units="pt"
     inkscape:zoom="0.32"
     inkscape:cx="703.125"
     inkscape:cy="317.1875"
     inkscape:window-width="1920"
     inkscape:window-height="1009"
     inkscape:window-x="-8"
     inkscape:window-y="-8"
     inkscape:window-maximized="1"
     inkscape:current-layer="g3" />
  <g
     transform="translate(0.000000,512.000000) scale(0.100000,-0.100000)"
     fill="#000000"
     stroke="none"
     id="g15">
    <g
       id="g3"
       inkscape:label="text"
       style="fill:#2c2c2c;fill-opacity:1">
      <g
         id="g10"
         inkscape:label="uantify"
         transform="translate(-117.1875,-23.4375)">
        <path
           d="m 16891.552,3059.2953 c -6.246,-8.3349 -3.22,-12.4747 -1.175,-20.4196 2.472,-8.2376 7.436,-20.6003 11.556,-28.0142 4.119,-7.4135 18.947,-44.4947 32.949,-82.388 14.83,-37.8929 29.655,-76.6063 32.949,-85.668 4.12,-9.0615 17.281,-40.3504 28.812,-70.0061 12.356,-29.6552 27.188,-65.9053 33.776,-80.7331 6.591,-14.8277 11.555,-31.3202 11.555,-37.0865 0.824,-5.7667 7.398,-24.6964 16.46,-42.8191 9.063,-18.1231 15.665,-38.7149 16.49,-46.129 0,-6.5901 5.762,-19.7801 12.352,-28.8418 6.59,-8.2371 12.352,-20.5925 12.352,-26.3593 0,-6.5899 10.701,-35.4118 24.705,-64.2436 13.181,-28.8315 33.774,-78.2679 46.128,-108.7473 22.243,-58.4874 73.312,-183.6945 85.668,-211.7026 21.419,-47.7783 74.144,-177.1171 74.144,-181.2357 0,-3.2952 23.083,-65.0718 50.266,-138.3868 79.905,-209.2365 74.144,-187.8053 60.962,-229.8174 -5.765,-20.5944 -14.825,-44.5106 -19.768,-52.7485 -4.942,-9.0615 -25.563,-51.0473 -46.159,-93.8832 -20.593,-42.8357 -43.651,-88.1421 -51.065,-99.675 -8.238,-11.5327 -22.228,-32.151 -30.465,-45.331 -26.36,-39.5409 -80.733,-86.4873 -120.273,-104.6103 -27.183,-12.3562 -61.787,-18.1294 -127.689,-21.4244 l -90.603,-4.935 -9.071,-90.603 c -13.18,-127.6838 -13.172,-127.6895 102.156,-127.6895 176.285,0 303.949,53.5453 401.154,166.401 34.597,41.1885 92.285,140.0319 118.646,204.2855 9.884,24.713 23.052,56.8557 29.641,70.0356 5.767,14.0041 16.492,37.8946 23.905,53.5461 6.591,15.6513 22.217,55.1925 34.576,86.4956 21.418,56.8403 51.9,135.0823 140.868,362.4418 62.606,160.6343 76.628,195.2383 84.043,214.1849 4.117,9.0614 13.982,35.412 21.396,57.6539 8.237,23.0652 20.602,56.0203 28.839,74.1431 15.653,38.7172 38.721,95.5696 53.547,135.9341 6.59,15.6516 21.415,55.1927 32.949,86.4956 12.356,32.1269 26.359,69.1783 32.949,82.3583 5.766,14.0042 18.958,48.5953 28.842,78.2509 9.886,29.6553 20.581,56.8478 23.05,61.7907 3.297,4.1186 9.895,19.769 14.836,32.9492 5.767,14.0041 18.128,45.3231 28.012,70.0358 9.886,24.7131 21.409,56.8257 24.705,70.0061 9.882,35.4221 31.297,94.7277 45.302,125.2071 6.588,14.0039 12.354,29.6611 12.354,34.6041 0,4.9424 7.422,22.2365 15.66,38.7117 27.186,50.2502 13.169,61.8022 -69.207,57.6832 -27.183,-1.6475 -76.592,-3.3096 -108.718,-3.3096 l -60.137,-1.6547 -16.488,-32.1218 c -9.064,-18.1232 -19.757,-46.121 -23.877,-64.2439 -8.237,-32.9504 -28.828,-90.6181 -58.483,-167.2285 -9.887,-24.713 -21.414,-58.4916 -25.531,-74.1431 -4.943,-15.6513 -11.546,-36.2401 -15.663,-45.3015 -17.298,-37.8933 -35.413,-86.4926 -57.653,-152.3939 -13.182,-38.7171 -31.307,-90.6243 -41.195,-115.3373 -9.059,-24.7128 -28.013,-78.2565 -41.194,-119.4448 -14.004,-40.3646 -28.007,-81.5419 -32.95,-90.603 -8.238,-17.2993 -42.843,-121.9298 -74.97,-229.0195 -21.417,-71.6675 -41.168,-84.0078 -55.997,-36.2295 -12.356,38.7169 -60.968,179.5848 -95.567,273.4937 -17.3,45.307 -33.766,96.3794 -37.886,112.8549 -4.119,17.2993 -16.479,50.2243 -28.013,74.1137 -10.71,23.8889 -25.529,58.5027 -31.295,76.6254 -6.589,18.1229 -25.548,70.0302 -42.848,115.3371 -16.476,45.3073 -32.135,89.7868 -34.606,98.8479 -2.471,9.0618 -7.402,20.5857 -10.696,24.7046 -4.119,4.9425 -19.78,45.2956 -35.432,90.603 -15.653,45.3071 -37.071,102.9764 -46.956,127.6894 -9.884,24.7128 -21.416,58.4919 -26.36,74.1432 -16.477,57.6639 -19.774,58.4774 -167.228,57.6539 -39.239,-0.3398 -66.992,-14.0685 -113.336,-34.752 z"
           style="fill:#2c2c2c;fill-opacity:1;stroke-width:0.823768"
           id="path2"
           sodipodi:nodetypes="ccscccscsccscccscccsccccccsccccccccccccsccsccsccccccccccccccccccccscssccc" />
        <path
           d="m 16573.974,3873.3527 c -43.765,-0.5149 -88.045,-4.0168 -117.289,-10.1951 -24.712,-5.7662 -73.318,-21.424 -107.092,-34.6042 -51.076,-19.77 -71.654,-34.5944 -123.552,-85.668 -70.018,-70.02 -107.911,-137.5665 -132.624,-238.8894 -12.357,-50.2497 -15.662,-94.7455 -15.662,-235.6093 0,-135.9216 -2.464,-176.3001 -11.525,-189.4805 -10.709,-14.0039 -25.542,-16.4745 -134.28,-19.7695 l -121.897,-4.1078 -2.483,-89.7754 c -1.647,-56.8398 0.825,-93.1108 6.59,-98.8774 4.943,-4.9425 59.3,-10.708 130.143,-13.1797 l 121.099,-4.1075 2.483,-633.4827 c 0.826,-451.4234 4.106,-636.77 10.696,-645.0074 11.534,-13.1805 233.961,-15.633 242.201,-2.4526 2.47,4.1185 4.934,277.5871 4.934,607.0936 0,330.3301 2.469,616.1984 5.763,636.7921 l 5.761,37.057 164.777,2.4823 c 143.337,1.6476 166.38,3.2756 175.443,15.6324 5.764,8.2376 9.9,40.3757 9.9,82.3878 l -2.483,106.3833 c -0.784,2.9338 -340.118,8.8213 -347.637,16.3417 -11.532,11.5336 -12.338,32.1534 -9.041,159.0133 4.943,160.6344 14.829,241.3558 33.776,277.6011 6.589,13.1803 12.353,28.0032 12.353,32.1219 0,15.6518 67.532,79.8978 96.364,91.4306 47.779,20.594 116.976,23.0687 186.172,7.4171 46.956,-10.709 66.732,-11.5249 74.971,-4.935 6.588,5.7668 12.366,37.0735 15.66,80.7332 3.296,40.3643 7.402,80.7183 10.698,90.6031 7.414,25.5369 -19.756,48.5996 -70.005,59.3086 -27.184,5.7662 -70.451,8.2572 -114.214,7.7424 z"
           style="fill:#2c2c2c;fill-opacity:1;stroke-width:0.823768"
           id="path1"
           sodipodi:nodetypes="sccccsccccscccccsccccccsccsccccccs" />
        <path
           d="m 15338.029,3681.2356 c -39.179,-11.7539 -97.945,-68.5634 -116.556,-112.6399 -45.057,-107.7421 17.63,-240.951 128.312,-273.2739 115.577,-35.2612 223.319,29.3844 261.521,154.7571 9.794,31.3434 8.815,47.0151 -6.858,93.0507 -39.18,118.5165 -144.962,173.3671 -266.419,138.106 z"
           id="path3-1"
           style="fill:#2c2c2c;fill-opacity:1;stroke-width:0.979477"
           sodipodi:nodetypes="cccccc" />
        <path
           d="m 14591.688,3502.3366 c -9.06,-4.943 -38.717,-14.0042 -65.9,-19.7708 -78.26,-16.4753 -123.565,-29.6554 -130.155,-39.5407 -3.297,-4.9427 -6.591,-89.7907 -6.591,-187.8188 0,-168.8722 -0.823,-179.581 -15.65,-187.8187 -9.063,-4.119 -68.374,-8.2376 -131.804,-8.2376 h -116.152 v -98.8522 c 0,-116.9747 -14.004,-106.266 148.278,-109.5609 l 111.209,-1.6477 4.119,-527.2107 4.117,-527.2101 18.947,-41.1885 c 9.887,-22.2419 22.244,-46.9544 26.363,-53.545 4.942,-6.5898 11.531,-19.7701 15.651,-29.6555 11.532,-25.5369 94.734,-98.0283 134.273,-116.9747 73.314,-33.7747 107.089,-42.8358 182.053,-47.7787 86.496,-6.59 179.579,9.0615 226.536,37.8933 l 26.36,16.4753 v 81.553 c 0,65.0779 -2.471,84.848 -13.181,95.5571 -7.413,7.4135 -19.77,10.7086 -27.183,8.2374 -34.598,-13.1804 -107.091,-21.4177 -149.102,-16.4752 -71.668,9.0614 -107.914,29.6555 -144.985,82.3766 -37.068,53.5447 -38.714,73.315 -42.011,564.2799 -3.294,413.5312 -2.471,466.2522 9.063,474.4898 9.061,6.5903 60.134,8.2378 172.167,4.9423 113.68,-2.471 164.752,-0.8237 177.109,5.7667 18.123,9.8852 18.946,14.004 16.476,102.1469 l -2.472,92.2622 -185.347,4.1187 c -102.148,2.4711 -186.17,5.7662 -186.996,6.5902 -1.646,0.8237 -2.471,95.5565 -2.471,210.8843 0,115.3271 -2.472,215.003 -4.942,222.4167 -5.767,15.6517 -25.538,16.4754 -47.779,3.2954 z"
           id="path6-8"
           style="fill:#2c2c2c;fill-opacity:1;stroke-width:0.823768"
           sodipodi:nodetypes="ccsscscscccccccccccsscccccccccccscc" />
        <path
           d="m 11596.473,3102.8095 c -169.695,-12.3566 -311.386,-55.1925 -439.067,-134.2737 -29.656,-17.2995 -31.303,-21.4182 -28.009,-48.6026 4.943,-37.8932 45.308,-149.9255 59.31,-163.9297 9.062,-9.8848 14.004,-9.0611 33.777,3.2954 13.178,8.2375 25.537,17.2992 28.008,19.7703 28.007,31.3031 171.343,85.6716 266.898,102.9708 156.518,27.1843 274.314,-0.824 353.398,-85.6717 44.483,-46.9546 60.959,-82.3767 76.61,-161.4582 14.004,-71.6676 14.828,-107.0896 1.647,-117.7987 -5.767,-4.1188 -62.607,-10.7087 -126.038,-14.0042 -175.46,-8.2374 -392.112,-49.4257 -490.138,-92.2616 -117.799,-51.0735 -172.992,-87.3192 -236.423,-152.3969 -111.208,-114.5033 -144.982,-306.441 -84.847,-479.4319 30.48,-85.6717 113.679,-173.815 205.942,-219.1222 88.142,-42.8357 139.216,-53.5449 247.13,-53.5449 151.572,0 268.547,37.0696 369.87,116.9751 32.951,26.3603 98.028,97.2046 116.153,126.8601 4.117,4.9425 12.355,7.4138 19.769,4.9425 9.885,-4.1188 13.18,-17.2991 14.005,-52.7212 0,-67.5489 11.531,-126.8599 24.712,-135.0975 18.947,-11.5327 210.06,-9.0615 219.122,3.2952 4.942,5.7661 5.765,28.8316 1.648,59.311 -3.297,27.1843 -6.591,253.72 -6.591,502.4975 -0.823,249.6014 -4.943,475.3135 -9.062,502.4977 -14.002,85.6718 -23.886,127.6838 -36.245,150.7494 -6.588,12.3562 -20.594,40.3643 -31.304,63.4297 -10.707,22.2421 -43.658,66.7253 -74.138,98.8523 -53.545,56.0161 -108.738,92.2619 -191.936,121.9174 -56.841,20.594 -208.414,37.8933 -284.201,32.9506 z m 357.515,-789.992 c 10.71,-4.1189 13.181,-20.5945 13.181,-97.2047 0,-201.8228 -55.194,-331.1543 -182.876,-427.535 -98.854,-75.7862 -317.151,-93.909 -411.885,-33.7742 -83.201,52.7211 -114.503,102.9707 -120.27,195.2328 -5.766,92.2614 22.241,157.3392 96.381,224.0643 56.015,50.2496 146.63,85.6718 294.084,116.1512 102.148,20.5943 283.376,33.7745 311.385,23.0656 z"
           id="path7-2"
           style="fill:#2c2c2c;fill-opacity:1;stroke-width:0.823768"
           sodipodi:nodetypes="ccccsccccccccccscccccccccccccccsccsccc" />
        <path
           d="m 10513.221,3059.15 -107.09,-4.1187 -4.12,-494.2605 c -4.943,-481.9032 -4.943,-495.0835 -22.241,-539.5667 -85.672,-217.4747 -228.183,-309.7364 -444.8345,-288.3187 -78.259,8.2378 -130.154,32.1273 -182.876,84.0244 -57.6645,56.8397 -86.4959,110.3848 -110.3856,208.4129 -4.1195,18.1232 -9.8844,253.72 -13.1796,531.3296 l -4.9417,498.379 h -123.5669 -123.5634 l -2.4719,-490.1412 c -2.4709,-524.7395 1.6464,-589.817 41.1889,-710.9107 45.3074,-140.8641 147.4531,-257.8388 261.9576,-300.6747 120.2706,-46.1312 157.3386,-52.7211 271.8436,-48.6023 133.4495,4.1185 199.3525,24.713 295.7315,90.6145 52.721,37.0693 127.684,113.6797 154.045,158.163 16.476,28.8318 25.537,4.1188 30.48,-87.3192 4.117,-60.9589 9.061,-94.7331 15.651,-99.6757 12.356,-7.4141 188.643,-9.0617 207.587,-1.648 11.534,4.943 13.182,78.2581 13.182,745.5092 v 740.5658 l -21.417,8.238 c -11.532,4.9425 -21.419,7.4139 -22.242,6.5902 -0.824,-0.824 -49.427,-4.1191 -108.737,-6.5902 z"
           id="path13-2"
           style="fill:#2c2c2c;fill-opacity:1;stroke-width:0.823768"
           sodipodi:nodetypes="ccccccccccccccccccccsccsc" />
        <path
           d="m 15291.066,3049.2646 c -2.471,-5.7663 -3.294,-342.6868 -2.471,-747.9799 l 2.471,-737.2714 114.502,-2.4711 c 62.608,-0.8237 117.801,1.6475 123.566,5.7665 14.005,11.5325 18.946,1463.0095 4.942,1479.4845 -14.004,16.4754 -237.243,18.123 -243.01,2.4714 z"
           id="path14-9"
           style="fill:#2c2c2c;fill-opacity:1;stroke-width:0.823768"
           sodipodi:nodetypes="cccccsc" />
        <path
           d="m 13239.887,3087.9816 c -77.435,-14.0039 -116.973,-29.6555 -183.7,-72.4912 -60.958,-39.541 -108.737,-84.8481 -140.038,-130.979 -35.425,-53.5449 -42.014,-41.1883 -45.31,88.1431 l -1.647,82.3768 -107.089,4.9424 c -62.607,2.4712 -111.208,1.6474 -116.977,-3.295 -8.235,-5.7667 -10.707,-163.9299 -10.707,-738.9188 0,-402.8222 2.472,-737.2709 4.942,-744.6851 4.12,-11.5326 22.241,-13.1802 114.505,-13.1802 60.134,0 115.326,2.4714 122.741,4.9424 11.532,4.1193 13.179,50.25 13.179,430.8301 0,346.8058 2.472,438.2438 13.182,497.5553 22.241,128.5075 52.718,190.2898 135.096,274.314 60.135,61.7828 127.684,93.0858 219.946,102.1473 168.05,17.2992 271.844,-28.0081 348.452,-152.3968 59.314,-95.557 65.903,-167.2247 65.903,-696.9068 0,-366.5759 1.648,-444.0101 11.531,-451.4238 7.416,-6.5903 48.604,-9.0617 125.215,-7.4141 l 114.502,2.4711 2.471,469.5472 c 1.649,294.9085 -0.823,498.3788 -6.588,546.1574 -19.77,175.4619 -74.14,291.6134 -183.702,394.584 -112.032,104.6182 -301.498,148.2781 -495.907,113.6797 z"
           id="path9-5"
           style="fill:#2c2c2c;fill-opacity:1;stroke-width:0.823768"
           sodipodi:nodetypes="cccccccscscsccccsccccccc"
           transform="translate(0,-2.5000001e-5)" />
      </g>
      <g
         id="g1"
         inkscape:label="Q"
         transform="matrix(1.3523173,0,0,1.3523173,-2992.7013,-833.38132)"
         style="fill:#2c2c2c;fill-opacity:1">
        <path
           d="M 7248.7701,4011.8286 C 6895.13,3948.8164 6610.9322,3786.7849 6383.317,3514.161 c -61.7265,-74.5862 -174.8911,-267.4805 -190.3229,-326.6349 -7.7152,-28.2909 -19.2896,-57.8688 -24.4331,-64.2978 -28.2913,-33.4358 -68.1561,-228.9013 -75.8714,-360.0702 -19.29,-363.9275 54.0101,-654.5548 235.3309,-925.8935 192.8946,-289.3417 568.3955,-524.6729 911.7478,-570.9677 273.9108,-37.2931 561.966,-3.8575 763.862,90.0175 45.0092,20.5752 83.5879,37.2931 87.4457,37.2931 12.8601,0 180.0346,106.7349 183.8921,117.0223 12.86,32.1496 66.8705,5.1439 147.8862,-74.5853 l 468.435,-386.4198 c 92.3804,28.4663 134.6651,36.6296 184.4809,57.4936 41.8219,17.516 97.4827,29.263 149.8691,90.3919 l -513.4432,435.2867 c -73.2997,74.5854 -135.0263,137.5981 -137.598,140.1698 -2.5718,2.5718 19.2892,43.7223 48.8666,90.0172 119.5949,189.0367 183.8928,356.2121 208.3263,540.1046 -23.2959,335.2374 59.7239,694.3496 -388.3614,1228.0944 -3.3073,3.9399 -46.2944,32.1496 -88.7311,69.4423 -127.3105,114.4513 -204.4684,160.7454 -405.0787,243.0469 -174.8911,72.0144 -497.6673,104.1632 -700.8497,68.1565 z m 398.6487,-327.9209 c 227.6151,-41.1505 412.7942,-136.3119 574.8252,-295.7712 304.7735,-298.344 383.2168,-792.1534 192.8946,-1208.8053 -41.1508,-90.0176 -133.7397,-221.1859 -213.4698,-297.0578 -222.4717,-217.3277 -565.8243,-338.2079 -853.8795,-299.6292 -160.7455,21.8614 -342.0666,88.7315 -464.2328,172.3186 -144.0281,97.7336 -309.9166,302.2017 -367.7857,455.2311 -15.4318,42.4369 -34.721,87.4453 -41.1506,100.3053 -21.8614,42.4366 -48.8666,231.473 -48.8666,336.9223 0,266.1942 101.5907,520.8151 286.7696,721.4254 146.6002,156.8871 375.5014,285.4838 561.9664,313.7751 82.3011,12.8592 304.7731,12.8592 372.9292,1.2857 z"
           id="path10-1"
           style="fill:#2c2c2c;fill-opacity:1;stroke-width:1.28597"
           sodipodi:nodetypes="ccccccccscccsccsccscccccccccccsccc" />
      </g>
      <g
         id="g2"
         transform="matrix(1.5862438,0,0,1.6499073,-4673.3182,-1366.4693)"
         inkscape:label="bars"
         style="fill:url(#linearGradient4);fill-opacity:1">
        <path
           d="m 7296.9245,2760.5859 c -20.5761,-5.1435 -21.8618,-33.4348 -19.2896,-419.2236 l 3.8574,-414.0805 137.5989,-3.8575 c 120.8797,-2.5721 138.8832,-1.286 149.1715,19.2892 6.4295,12.86 11.5735,195.4663 10.2878,407.6505 -2.5726,451.3729 9.0009,420.5102 -154.3158,417.9385 -57.8684,-1.2861 -114.4507,-3.8578 -127.3102,-7.7166 z"
           id="path11-9"
           style="fill:url(#linearGradient7);stroke-width:1.28597"
           sodipodi:nodetypes="ccccsccc" />
        <path
           d="m 7763.9043,3052.8998 c -20.5753,-5.1435 -24.6846,-327.0672 -22.1129,-712.8551 l 3.8575,-414.0807 137.598,-3.8578 c 120.881,-2.5722 138.8845,-1.2865 149.172,19.2893 6.4295,12.8599 11.5738,195.4663 10.2881,407.6505 -16.6891,739.3579 -14.9976,625.9111 -15.9703,708.0402 -55.0443,14.2426 -249.9733,-0.3281 -262.8324,-4.1864 z"
           id="path11-3-1"
           sodipodi:nodetypes="ccccsccc"
           style="fill:url(#linearGradient8);stroke-width:1.28597" />
        <path
           d="m 6797.9136,2501.8279 c -16.7178,-15.4317 -10.2882,-537.5332 6.4292,-554.2507 16.7178,-16.7173 250.7626,-21.8613 275.196,-5.1438 20.5758,12.8599 34.7214,533.675 14.1458,554.2507 -15.4318,15.4308 -280.34,20.5744 -295.771,5.1438 z"
           id="path12-6"
           style="fill:url(#linearGradient9);stroke-width:1.28597"
           sodipodi:nodetypes="cscsc" />
      </g>
      <g
         id="g9"
         inkscape:label="ml"
         style="fill:#2c2c2c;fill-opacity:1"
         transform="translate(-980.98451,-11.718775)">
        <path
           d="m 5614.9017,3803.4689 c -3.2964,-3.2951 -5.7675,-509.0882 -5.7675,-1124.4414 V 1561.1762 l 18.9468,-4.9429 c 23.8894,-6.5901 193.5861,-6.5901 218.2985,0 l 18.1238,4.9429 -1.6482,1121.97 -2.4712,1121.1463 -120.2699,2.4713 c -65.9025,0.8237 -121.918,-0.8237 -125.2123,-3.2949 z"
           id="path2-6"
           style="fill:#2c2c2c;fill-opacity:1;stroke-width:0.823768"
           sodipodi:nodetypes="cscccccccc" />
        <path
           d="m 3487.936,3080.2016 c -27.1838,-5.7662 -79.0818,-24.713 -115.3274,-41.1885 -51.8981,-24.713 -78.2587,-44.4831 -125.2123,-93.0854 -32.9513,-33.7745 -61.7831,-69.1964 -64.2544,-77.4342 -3.2943,-9.8851 -11.5331,-15.6513 -18.9469,-14.0038 -12.3562,2.4711 -14.0043,16.475 -16.4756,95.5569 -2.4713,92.2615 -2.4713,93.0857 -24.7124,101.3232 -14.8274,5.7665 -53.5443,6.5904 -112.8562,1.6475 l -90.6149,-6.5899 v -737.2712 c 0,-406.1171 3.2964,-742.2138 7.4157,-747.1564 9.8851,-14.8278 219.9447,-14.8278 233.9491,-0.8236 7.4138,7.4137 9.8849,119.4458 9.8849,452.2476 0,474.4897 3.2944,518.973 43.6594,617.0012 37.8937,93.9095 111.208,172.9909 195.2322,212.5318 41.1881,18.9469 55.1924,21.4181 152.3981,21.4181 113.6792,0.8237 132.626,-4.1192 204.2942,-54.3686 51.896,-36.246 112.0309,-154.8682 125.2122,-245.4827 2.4713,-20.5939 4.9425,-252.8965 4.1195,-517.3255 l -0.8252,-479.432 21.4182,-8.2375 c 23.0662,-9.0614 208.4135,-11.5327 229.8317,-3.2953 11.5311,4.119 13.1792,50.25 13.1792,426.7113 0,231.4782 4.1195,456.3666 8.2388,499.2022 8.2369,78.2581 28.0069,147.4546 58.4869,207.5893 22.2411,43.6596 105.4424,125.2125 149.1016,146.6306 79.0819,37.8932 233.1261,42.0122 309.7366,7.4138 75.7855,-33.7742 142.5111,-118.6223 168.8717,-213.3555 28.8318,-102.147 30.48,-134.274 30.48,-596.4067 0,-349.2772 2.4712,-465.4284 9.8849,-472.8421 11.5331,-11.533 218.2986,-14.0042 235.5973,-2.4712 9.0618,4.9422 10.708,104.6181 7.4136,537.0955 -2.4711,329.5065 -6.5906,542.8624 -12.3561,563.4564 -52.7212,204.2942 -159.8118,339.3918 -314.679,397.8794 -116.9756,44.4834 -320.4447,43.6598 -441.5397,-1.6477 -45.3073,-16.4755 -125.2122,-64.2538 -155.6922,-93.0857 -32.1262,-29.6552 -102.9692,-116.9749 -102.9692,-126.8598 0,-22.2419 -26.3606,-0.8237 -60.9601,50.2495 -101.3229,147.4543 -229.0065,207.5892 -434.9488,205.1181 -42.0112,-0.8237 -98.8518,-5.7662 -126.0354,-10.7091 z"
           id="path8-8"
           style="fill:#2c2c2c;fill-opacity:1;stroke-width:0.823768"
           sodipodi:nodetypes="cccccccccscsscccccccccscccccssccccccsccc" />
      </g>
    </g>
  </g>
</svg>
